HIERARCHY
ROOT Hips
{
  OFFSET 0 0 0
  CHANNELS 6 Xposition Yposition Zposition Zrotation Yrotation Xrotation
  JOINT LeftThigh
  {
    OFFSET 8.409438 0 -5.917753
    CHANNELS 3 Zrotation Yrotation Xrotation
    JOINT LeftLeg
    {
      OFFSET 0 0 -42.358652
      CHANNELS 3 Zrotation Yrotation Xrotation
      JOINT LeftFoot
      {
        OFFSET 0 0 -39.357303
        CHANNELS 3 Zrotation Yrotation Xrotation
      }
    }
  }
  JOINT RightThigh
  {
    OFFSET -8.409438 0 -5.917753
    CHANNELS 3 Zrotation Yrotation Xrotation
    JOINT RightLeg
    {
      OFFSET 0 0 -42.358652
      CHANNELS 3 Zrotation Yrotation Xrotation
      JOINT RightFoot
      {
        OFFSET 0 0 -39.357303
        CHANNELS 3 Zrotation Yrotation Xrotation
      }
    }
  }
  JOINT SpineLow
  {
    OFFSET 0 0 4.719101
    CHANNELS 3 Zrotation Yrotation Xrotation
    JOINT SpineMid
    {
      OFFSET 0 0 12.899191
      CHANNELS 3 Zrotation Yrotation Xrotation
      JOINT Chest
      {
        OFFSET 0 0 12.899191
        CHANNELS 3 Zrotation Yrotation Xrotation
        JOINT LeftShoulder
        {
          OFFSET 7.550562 1.41573 9.438202
          CHANNELS 3 Zrotation Yrotation Xrotation
          JOINT LeftArm
          {
            OFFSET 9.155056 0 4.247191
            CHANNELS 3 Zrotation Yrotation Xrotation
            JOINT LeftForearm
            {
              OFFSET 0 0 25.771955
              CHANNELS 3 Zrotation Yrotation Xrotation
              JOINT LeftHand
              {
                OFFSET 0 0 25.197169
                CHANNELS 3 Zrotation Yrotation Xrotation
              }
            }
          }
        }
        JOINT RightShoulder
        {
          OFFSET -7.550562 1.41573 9.438202
          CHANNELS 3 Zrotation Yrotation Xrotation
          JOINT RightArm
          {
            OFFSET -9.155056 0 4.247191
            CHANNELS 3 Zrotation Yrotation Xrotation
            JOINT RightForearm
            {
              OFFSET 0 0 -25.771955
              CHANNELS 3 Zrotation Yrotation Xrotation
              JOINT RightHand
              {
                OFFSET 0 0 -25.197169
                CHANNELS 3 Zrotation Yrotation Xrotation
              }
            }
          }
        }
        JOINT Neck
        {
          OFFSET 0 0 15.101124
          CHANNELS 3 Zrotation Yrotation Xrotation
          JOINT Head
          {
            OFFSET 0 0 11.325843
            CHANNELS 3 Zrotation Yrotation Xrotation
            End Site
            {
              OFFSET 0 0 14.157303
            }
          }
        }
      }
    }
  }
}
MOTION
Frames: 13
Frame Time: 0.0
0.0  93.25843  0.0  -6.557001  -28.790013  -87.087983  17.084631  -16.563496  0.980725  4.960757  -1.992006  9.982511  14.565636  2.247875  6.025623  -1.156737  -4.035814  -11.105508  1.594442  9.235681  9.415433  7.351736  1.869146  1.568358  -1.694821  -1.691232  -0.142555  -4.629606  -4.630185  -0.271205  -4.629606  -4.630185  -0.271206  -14.091568  -5.286102  9.662649  -60.136634  46.577101  -27.385194  -10.832931  -32.571936  102.061567  104.931494  32.610769  15.259776  -11.655436  -10.395351  25.600119  80.183646  31.978693  61.306534  -21.158067  -1.14009  -115.438309  66.910821  -11.479644  -11.924663  12.319981  1.927832  4.993973  9.224099  1.547426  3.708034  
0.0  93.25843  0.0  -6.665367  -24.123229  -86.586599  17.055903  -17.425951  -0.881331  2.406327  -1.043539  9.587465  14.645173  1.929772  6.345846  -2.415295  -3.629098  -11.108511  0.135533  8.886124  9.341053  6.895439  2.066187  1.652479  -2.571218  -1.587395  -0.051196  -7.034122  -4.338784  0.029118  -7.034122  -4.338784  0.029119  -11.092889  -8.688582  9.83415  -52.869074  48.623068  -17.792713  -5.534226  -36.461556  92.021028  105.99511  31.446134  15.702602  -10.210817  -10.989046  23.515325  74.368128  29.307595  59.959535  -22.417465  0.332839  -114.380695  68.321482  -11.113932  -9.418014  12.7253  1.151635  4.147645  9.536366  0.950648  3.088231  
0.0  93.25843  0.0  -6.999343  -20.188854  -86.097627  17.510234  -18.197689  -2.647847  0.220499  -0.661428  9.435226  14.218717  1.831594  6.286478  -3.047718  -3.386888  -11.262012  -1.610748  8.7075  9.540388  6.553225  2.237885  1.64799  -3.075498  -1.834043  -0.220811  -8.404697  -5.031899  -0.369752  -8.404698  -5.031898  -0.369752  -10.987224  -10.497756  10.665844  -43.671408  51.23454  -7.838716  3.016164  -39.730716  79.778248  107.667257  30.226327  16.114049  -10.483545  -9.440797  23.148816  68.96134  27.442974  58.735509  -22.704623  1.729367  -114.899656  66.450142  -11.580134  -6.877965  12.192982  1.336855  4.48503  9.135102  1.092723  3.338518  
0.0  93.25843  0.0  -7.352931  -16.573964  -86.071864  17.756414  -18.740782  -3.866817  -2.038135  -0.583525  9.270484  13.639169  2.129359  6.228564  -3.556554  -3.153146  -11.124718  -3.620516  8.699087  9.764059  6.333793  2.213668  1.589816  -3.622885  -2.077863  -0.580018  -9.875194  -5.751571  -1.272842  -9.875194  -5.751571  -1.272841  -10.231577  -10.766598  13.323286  -32.53778  52.338238  3.502574  13.454058  -41.441833  67.326464  109.886016  28.625659  19.007547  -10.760122  -6.911748  24.327838  64.660886  25.614294  57.313494  -21.968764  1.971869  -115.115536  63.899086  -11.251196  -5.878726  12.02856  1.510673  5.764233  9.007609  1.24718  4.295158  
0.0  93.25843  0.0  -7.456863  -12.330434  -86.873404  16.504391  -19.062151  -4.083329  -4.069466  -0.726426  9.143569  13.217389  2.023796  6.035569  -5.113373  -2.760584  -10.370132  -5.382653  8.708413  9.997319  6.417029  2.206804  1.683369  -4.353646  -2.255257  -0.632566  -11.872904  -6.255012  -1.320145  -11.872904  -6.255012  -1.320145  -8.236019  -11.099179  14.092423  -21.43332  50.780944  13.695132  21.709715  -40.864289  59.727642  111.568676  26.429884  27.432296  -9.833911  -5.163364  24.033643  60.508499  23.834784  55.556263  -20.823308  1.050233  -114.887325  62.510782  -10.589148  -5.562358  12.294183  1.951183  6.182797  9.201134  1.588734  4.599593  
0.0  93.25843  0.0  -7.87995  -9.711986  -86.671919  16.371968  -19.203984  -4.972764  -5.704518  -0.956995  8.91552  12.777883  1.942979  5.742874  -5.494091  -2.906765  -10.616414  -6.525719  8.846376  10.372909  6.587715  2.21736  1.72189  -4.715945  -2.51228  -0.613684  -12.869572  -6.956293  -1.184005  -12.869572  -6.956293  -1.184006  -6.42094  -12.216054  13.917261  -13.666489  49.661608  21.518164  29.281618  -38.947324  53.523966  109.099454  24.811549  32.729638  -10.482324  -3.99596  22.568108  57.96544  22.17362  54.11967  -19.835723  0.173483  -114.593922  61.441081  -10.470863  -5.039293  12.390527  2.708355  5.765869  9.266594  2.149437  4.270729  
0.0  93.25843  0.0  -8.008188  -7.82684  -86.354986  15.872783  -18.978532  -5.595935  -6.524385  -1.201004  8.735507  12.734112  1.836158  5.664652  -5.740174  -2.880076  -11.165908  -7.268013  9.062918  10.777876  6.642927  2.192386  1.712169  -4.734523  -2.61132  -0.586733  -12.924439  -7.220813  -1.089126  -12.924439  -7.220813  -1.089125  -6.589929  -13.96356  13.770822  -7.735739  48.615453  25.981131  30.528786  -38.379564  50.619746  103.624545  23.311301  31.046335  -11.616297  -4.592995  21.357522  55.620701  20.475859  53.074159  -20.065106  0.064432  -113.863362  60.10639  -10.611112  -4.395493  11.800868  3.273211  5.014048  8.822084  2.553041  3.697877  
0.0  93.25843  0.0  -7.381829  -6.483054  -85.939737  14.855969  -17.995318  -5.925271  -6.474034  -1.442057  8.688965  12.744299  1.766415  5.602049  -6.298771  -2.262864  -11.805102  -7.322535  9.265068  10.971718  6.577248  2.115076  1.721443  -4.480233  -2.571358  -0.753859  -12.208344  -7.139871  -1.581342  -12.208344  -7.139871  -1.581342  -7.5678  -14.227553  15.01082  -8.789148  48.90909  25.400278  28.347549  -41.065794  51.072659  100.715437  24.347531  27.604828  -15.398714  -5.327929  21.124282  55.776585  18.910382  52.510241  -20.789653  0.873172  -112.515719  59.222188  -10.773688  -3.793843  10.614072  3.747254  4.799222  7.928844  2.895008  3.534229  
0.0  93.25843  0.0  -6.866021  -5.594758  -85.706996  13.574685  -17.26155  -5.976506  -5.78323  -1.619689  8.806922  12.703781  1.785839  5.596742  -7.294044  -1.783098  -12.177201  -7.047917  9.389972  11.013877  6.619075  2.115651  1.690211  -4.289745  -2.524375  -0.877591  -11.672549  -7.030021  -1.948673  -11.672549  -7.030021  -1.948674  -7.643935  -14.292348  15.712754  -13.111526  49.259398  22.160433  22.297374  -44.398885  56.921883  101.993553  26.277919  25.121465  -16.717396  -6.299015  21.42251  55.049696  18.052698  51.970921  -21.045922  1.171875  -111.213419  59.772687  -10.844358  -3.386414  9.928017  4.019117  4.934843  7.411042  3.095675  3.635362  
0.0  93.25843  0.0  -6.359795  -4.854962  -85.825412  11.389169  -16.805476  -6.099555  -4.40722  -1.637549  9.575165  12.684723  1.867117  5.66315  -8.773572  -1.231485  -12.271399  -6.636361  9.419519  11.097225  8.936917  1.956852  2.073541  -4.068132  -2.439036  -0.876827  -11.065399  -6.791882  -1.984653  -11.065399  -6.791882  -1.984654  -7.069808  -14.26611  15.088858  -20.017661  48.736562  17.528918  15.524832  -46.160498  64.344828  105.424117  25.987302  25.51279  -17.77762  -7.375642  21.219333  55.096051  18.033465  52.08541  -20.145934  0.451142  -110.163693  61.101376  -10.730458  -2.395135  9.147331  4.038214  5.090387  6.824543  3.105895  3.756674  
0.0  93.25843  0.0  -6.218942  -4.312407  -85.811385  10.560405  -16.645479  -6.135732  -4.148898  -1.590468  9.858977  12.643531  1.977667  5.688405  -10.43251  -1.019623  -12.440865  -6.348072  9.391493  11.199016  9.329714  1.943214  2.073418  -3.817669  -2.363933  -0.821016  -10.384933  -6.572009  -1.869848  -10.384933  -6.572009  -1.869848  -6.666963  -14.387485  13.973222  -28.463936  47.842502  11.998778  13.569546  -47.527426  69.200802  108.090865  25.808213  29.076856  -18.165737  -8.320084  20.488141  55.49059  18.345381  52.573274  -18.429476  -0.859524  -109.481277  61.56951  -10.430742  -0.707151  8.277405  3.750828  5.218939  6.174306  2.884654  3.862781  
0.0  93.25843  0.0  -6.223359  -4.015457  -85.41865  10.237475  -16.63734  -6.540176  -4.218323  -1.412328  10.094729  12.674253  2.078233  5.732289  -11.91512  -1.060226  -12.983606  -6.054915  9.333627  11.412397  9.605864  2.015213  2.034883  -3.591459  -2.255586  -0.86802  -9.761348  -6.277971  -2.036966  -9.761348  -6.277972  -2.036966  -6.884957  -14.639098  13.450332  -35.61815  46.994321  7.265755  12.513948  -51.460542  73.397844  107.561958  26.399575  32.921581  -17.927376  -8.770969  20.085142  56.14267  18.635458  53.109957  -16.709755  -2.211919  -109.171687  60.761165  -10.326489  1.042323  8.274001  3.151333  6.025749  6.173557  2.445873  4.476446  
0.0  93.25843  0.0  -6.120996  -3.997935  -85.15228  10.118226  -16.56699  -6.674643  -4.399832  -1.195346  10.278926  12.692164  2.170056  5.675263  -12.87188  -1.058032  -13.411273  -5.998422  9.359977  11.604727  9.665713  2.123679  1.98585  -3.422117  -2.123224  -0.954924  -9.291246  -5.924526  -2.309168  -9.291245  -5.924526  -2.309167  -7.556649  -14.382205  13.761233  -40.335156  46.131608  3.806948  12.256791  -53.152143  76.741556  105.891733  28.448881  32.39934  -17.229306  -8.585192  19.932039  57.178962  18.518204  53.80535  -15.656588  -3.37593  -109.047507  59.586146  -10.461938  2.503215  7.670514  2.547647  6.531852  5.725475  1.99335  4.867001  
